<?xml version="1.0" standalone="no"?>
<!DOCTYPE svg PUBLIC "-//W3C//DTD SVG 20010904//EN"
 "http://www.w3.org/TR/2001/REC-SVG-20010904/DTD/svg10.dtd">
<svg version="1.0" xmlns="http://www.w3.org/2000/svg"
 width="128.000000pt" height="128.000000pt" viewBox="0 0 128.000000 128.000000"
 preserveAspectRatio="xMidYMid meet">

<g transform="translate(0.000000,128.000000) scale(0.100000,-0.100000)"
fill="#000000" stroke="none">
<path d="M525 1269 c-306 -51 -541 -348 -522 -659 18 -286 214 -521 492 -589
63 -16 225 -16 290 -1 215 52 405 233 469 449 26 90 31 196 12 292 -70 345
-393 567 -741 508z m296 -101 c95 -35 153 -72 220 -140 97 -99 165 -271 157
-400 l-3 -49 -80 -4 -81 -4 7 67 c9 84 -4 155 -38 206 -21 32 -26 52 -27 106
-1 38 -7 74 -14 83 -16 19 -63 9 -126 -26 -44 -24 -49 -25 -112 -15 -48 8 -89
8 -150 0 -83 -11 -85 -11 -147 18 -71 34 -113 38 -121 13 -13 -44 -16 -90 -8
-118 7 -23 4 -37 -15 -64 -13 -18 -28 -52 -34 -75 -11 -40 -7 -143 6 -179 7
-15 -2 -17 -84 -17 l-91 0 0 63 c1 218 121 414 312 506 45 22 106 44 133 50
81 16 220 6 296 -21z m353 -604 c26 -10 20 -37 -6 -30 -13 3 -52 6 -87 6 -40
0 -61 4 -55 9 14 15 121 25 148 15z m-904 -12 c0 -5 -40 -13 -90 -18 -83 -8
-90 -8 -90 8 0 16 11 18 90 18 50 0 90 -4 90 -8z m24 -48 c10 -14 38 -39 64
-55 43 -27 66 -36 144 -53 l26 -6 -21 -40 c-18 -31 -29 -40 -57 -45 -40 -7
-79 5 -99 28 -7 9 -20 13 -29 10 -15 -4 -15 -3 -2 6 13 10 10 16 -18 41 -34
31 -82 41 -82 16 0 -7 11 -21 25 -30 14 -9 36 -39 50 -66 33 -66 64 -85 137
-85 l58 0 0 -57 c0 -43 -4 -58 -14 -58 -7 0 -50 18 -94 40 -60 30 -96 57 -145
109 -67 71 -126 174 -130 226 -2 28 0 30 43 36 102 14 127 11 144 -17z m876
16 c13 -8 12 -16 -5 -67 -27 -79 -81 -158 -150 -221 -54 -50 -158 -112 -187
-112 -10 0 -14 27 -16 108 -3 87 -7 112 -23 134 l-19 28 27 5 c114 24 182 61
205 110 10 23 16 25 82 25 39 0 78 -5 86 -10z m-510 -325 c0 -72 -4 -115 -10
-115 -7 0 -10 41 -8 115 2 63 6 115 11 115 4 0 7 -52 7 -115z m-90 -5 c0 -55
-3 -100 -7 -100 -5 0 -7 45 -5 100 2 55 5 100 8 100 2 0 4 -45 4 -100z m180
-12 c0 -52 -4 -88 -10 -88 -6 0 -10 41 -10 103 0 69 3 97 10 87 5 -8 10 -54
10 -102z"/>
</g>
</svg>
