<?xml version="1.0" standalone="no"?>
<!DOCTYPE svg PUBLIC "-//W3C//DTD SVG 20010904//EN"
 "http://www.w3.org/TR/2001/REC-SVG-20010904/DTD/svg10.dtd">
<svg version="1.0" xmlns="http://www.w3.org/2000/svg"
 width="896.000000pt" height="896.000000pt" viewBox="0 0 896.000000 896.000000"
 preserveAspectRatio="xMidYMid meet">

<g transform="translate(0.000000,896.000000) scale(0.100000,-0.100000)"
fill="#000000" stroke="none">
<path d="M1104 8365 c-4 -8 -10 -12 -15 -10 -4 3 -22 -14 -40 -37 -17 -24 -34
-42 -38 -41 -4 1 -8 -4 -8 -11 0 -6 9 -13 19 -13 11 -1 17 3 15 10 -2 7 0 20
5 30 8 16 12 16 26 5 15 -12 16 -11 3 5 -11 13 -11 20 -1 32 7 8 16 12 21 10
4 -3 13 4 19 15 6 11 8 20 5 20 -3 0 -8 -7 -11 -15z"/>
<path d="M2262 8268 c-25 -32 -88 -252 -113 -398 -20 -113 -18 -384 4 -502
l19 -97 -77 -88 c-265 -302 -427 -695 -442 -1069 -7 -164 -1 -203 31 -235 22
-23 24 -34 30 -194 8 -201 31 -370 54 -405 14 -21 60 -159 62 -183 0 -4 -37
-5 -82 -3 -205 12 -733 -4 -988 -29 -271 -27 -586 -70 -713 -97 -36 -7 -47
-14 -47 -29 0 -23 -7 -23 126 1 214 38 442 68 654 85 41 3 100 8 130 11 118
11 478 21 533 14 32 -3 60 -3 63 2 6 9 216 11 291 2 48 -6 53 -9 66 -43 8 -20
18 -55 22 -78 l7 -43 -34 -1 c-18 -1 -44 -2 -58 -4 -98 -10 -271 -14 -266 -6
4 5 -6 4 -21 -4 -16 -7 -86 -18 -158 -25 -170 -15 -462 -54 -650 -86 -231 -39
-674 -140 -692 -157 -9 -10 11 -38 24 -33 33 13 350 88 488 115 313 63 755
122 925 125 52 0 97 4 100 8 3 3 84 11 180 18 145 10 175 10 179 -2 2 -7 23
-48 45 -90 213 -402 771 -704 1511 -818 77 -12 148 -25 158 -29 15 -5 3 -16
-57 -54 -42 -27 -78 -52 -81 -57 -3 -5 1 -26 10 -46 14 -35 14 -39 -14 -98
-16 -33 -41 -100 -55 -147 -15 -47 -35 -94 -45 -103 -27 -25 -215 -76 -286
-78 -100 -4 -298 19 -361 41 -132 47 -233 141 -344 321 -66 106 -78 120 -106
120 -14 0 -45 24 -89 70 -37 38 -93 86 -124 107 -31 20 -60 41 -65 45 -5 4 7
25 27 48 26 28 37 49 37 71 0 26 -6 33 -47 51 -38 17 -61 20 -129 16 l-84 -4
-14 50 c-49 171 -51 184 -33 204 21 23 22 46 1 67 -13 12 -32 16 -78 14 -56
-2 -62 -1 -74 22 l-14 24 6 -27 c5 -23 1 -30 -23 -42 -30 -16 -81 -70 -81 -87
0 -11 33 -45 49 -50 6 -2 26 -58 45 -124 l33 -120 -27 -30 c-40 -44 -50 -68
-50 -122 0 -88 86 -184 154 -171 20 4 25 -4 45 -61 39 -113 103 -275 114 -289
13 -17 81 -8 115 14 13 9 25 14 27 12 1 -2 17 -38 35 -80 35 -86 80 -153 107
-162 10 -4 34 -30 53 -58 50 -74 144 -173 220 -230 80 -61 267 -153 352 -173
140 -32 354 -29 536 9 l62 14 0 -314 c0 -309 0 -313 22 -328 19 -14 21 -21 15
-93 -5 -61 -15 -94 -43 -151 -40 -82 -119 -168 -180 -196 -21 -10 -53 -25 -69
-32 -40 -19 -68 -65 -59 -99 10 -41 51 -55 156 -55 262 1 491 109 574 271 41
82 54 143 54 265 0 61 3 114 8 118 7 8 10 163 8 441 -3 402 -1 436 21 510 12
39 28 78 35 88 12 16 13 9 6 -45 -5 -35 -11 -108 -14 -164 -5 -87 -4 -103 11
-118 14 -13 16 -27 11 -69 -3 -29 -9 -115 -12 -191 -3 -77 -7 -143 -9 -146 -2
-3 3 -62 10 -131 9 -89 19 -138 35 -168 16 -32 18 -46 10 -56 -8 -9 -8 -31 0
-76 23 -143 4 -266 -61 -398 -24 -48 -60 -102 -83 -125 -82 -80 -110 -186 -56
-213 103 -52 499 46 565 139 20 29 20 87 0 94 -21 8 -19 20 10 58 13 17 36 59
51 92 47 107 55 174 52 449 0 17 5 50 11 74 7 27 13 150 14 315 l3 271 24 0
25 0 1 -275 c0 -190 4 -289 13 -319 7 -26 13 -114 15 -215 2 -146 5 -181 24
-236 19 -57 54 -124 95 -183 10 -15 9 -20 -5 -28 -12 -7 -18 -22 -18 -49 0
-31 6 -43 33 -66 43 -36 136 -78 233 -104 100 -27 278 -37 314 -18 54 29 28
127 -55 213 -24 24 -62 82 -85 127 -64 131 -84 267 -59 402 8 43 7 61 -2 72
-9 11 -6 27 17 77 27 59 28 71 32 234 2 94 -1 224 -7 289 -10 102 -10 119 4
134 17 19 22 186 6 236 -14 44 -22 136 -11 129 16 -10 58 -156 65 -225 3 -36
2 -139 -4 -229 -9 -120 -9 -172 0 -195 8 -22 8 -80 2 -206 -8 -143 -7 -178 4
-191 9 -11 13 -48 13 -125 0 -60 5 -129 11 -153 52 -226 260 -363 576 -378
135 -6 173 2 191 43 20 42 -20 102 -78 119 -41 12 -116 64 -156 107 -58 65
-104 173 -111 262 -5 68 -4 77 15 93 20 18 21 26 23 528 3 456 1 521 -15 615
-23 135 -59 259 -98 338 -31 62 -31 64 -14 98 9 20 13 40 10 46 -4 5 -40 32
-81 59 -84 54 -87 50 52 70 214 29 510 103 702 175 427 159 739 402 873 683
l35 73 95 -7 c428 -27 626 -48 945 -96 275 -42 735 -139 829 -175 14 -5 17 -2
14 17 -3 21 -14 27 -88 46 -415 110 -1037 207 -1525 237 -44 3 -121 8 -171 12
l-91 6 7 41 c4 23 12 58 20 78 l13 36 75 7 c243 20 891 -9 1302 -60 129 -16
411 -61 443 -70 15 -5 18 -1 15 17 -3 21 -12 25 -73 37 -191 34 -516 75 -775
96 -157 13 -387 20 -666 20 l-302 1 15 45 c56 179 89 393 104 680 8 147 16
220 25 230 31 36 36 73 24 175 -24 206 -71 359 -175 570 -78 157 -159 278
-264 396 l-63 70 19 87 c28 136 26 449 -6 597 -26 125 -87 316 -105 328 -6 5
-63 6 -126 3 -231 -10 -507 -115 -849 -321 l-143 -86 -142 25 c-330 60 -629
80 -1081 73 -397 -7 -652 -30 -917 -83 l-78 -15 -67 43 c-273 176 -578 312
-792 352 -102 19 -244 21 -259 4z m3428 -2318 c3 -1 19 -1 36 0 86 4 369 -53
357 -73 -3 -6 -1 -7 5 -3 23 14 168 -76 155 -97 -3 -5 -2 -7 4 -4 11 7 59 -43
55 -56 -1 -5 2 -6 7 -3 10 6 44 -41 44 -61 0 -6 5 -11 11 -10 6 1 10 -6 10
-15 -1 -10 2 -16 6 -13 6 4 31 -42 36 -65 0 -3 4 -13 8 -22 4 -9 4 -22 0 -29
-4 -8 -3 -9 4 -5 33 20 63 -276 35 -354 -3 -8 -7 -28 -8 -45 -12 -114 -78
-273 -167 -401 l-49 -71 -122 -5 c-67 -3 -126 -3 -132 0 -5 4 -35 5 -66 3 -52
-2 -207 14 -239 26 -8 3 -28 7 -44 9 -85 11 -339 91 -331 104 3 6 -1 7 -9 4
-17 -7 -208 55 -202 65 2 3 -6 6 -17 7 -12 0 -87 18 -167 39 -169 44 -160 42
-360 51 -139 6 -210 2 -365 -21 -11 -2 -67 -15 -125 -31 -58 -15 -113 -27
-122 -28 -10 0 -18 -4 -18 -9 0 -5 -9 -7 -20 -4 -11 3 -18 2 -15 -3 4 -7 -81
-35 -97 -32 -5 1 -8 -3 -8 -8 0 -6 -6 -10 -12 -8 -7 1 -23 -3 -35 -10 -12 -6
-30 -13 -40 -15 -10 -2 -29 -9 -43 -14 -73 -31 -329 -97 -338 -88 -3 3 -11 0
-18 -6 -7 -5 -38 -11 -71 -12 -32 -1 -61 -5 -64 -10 -9 -12 -354 -9 -410 5
-18 4 -76 68 -63 68 4 0 1 6 -8 13 -13 10 -92 148 -96 167 0 3 -8 22 -17 44
-60 142 -80 376 -45 518 21 84 83 218 102 218 6 0 8 3 5 7 -11 11 14 32 31 26
13 -4 14 -3 4 5 -44 31 228 220 285 198 8 -3 12 -2 9 3 -6 10 82 30 156 36 29
2 53 5 53 6 0 0 29 3 65 6 36 3 66 6 67 7 3 3 2387 0 2393 -4z m-800 -2304
c23 -40 -1 -77 -62 -94 -55 -15 -79 -55 -59 -98 10 -22 9 -24 -8 -15 -10 6
-26 22 -35 36 -52 78 -12 185 76 204 43 10 70 0 88 -33z"/>
<path d="M6165 5811 c-6 -11 13 -26 22 -17 4 3 1 6 -6 6 -7 0 -9 5 -6 10 3 6
4 10 1 10 -3 0 -7 -4 -11 -9z"/>
<path d="M6255 5739 c-4 -6 -5 -12 -2 -15 2 -3 7 2 10 11 7 17 1 20 -8 4z"/>
<path d="M5905 5685 c-25 -12 -26 -14 -5 -9 14 4 29 10 35 15 12 12 5 11 -30
-6z"/>
<path d="M3045 5680 c3 -5 14 -10 23 -10 15 0 15 2 2 10 -20 13 -33 13 -25 0z"/>
<path d="M5593 5583 c-191 -62 -178 -52 -208 -168 -8 -32 -15 -95 -15 -140 1
-279 186 -466 373 -376 135 66 215 282 177 482 -18 95 -113 262 -147 258 -4 0
-85 -26 -180 -56z"/>
<path d="M3200 5558 c-52 -80 -71 -143 -77 -253 -16 -290 176 -500 370 -406
120 58 196 231 184 416 -3 44 -14 104 -24 134 l-18 53 -185 59 c-101 32 -190
59 -197 59 -8 0 -31 -28 -53 -62z"/>
<path d="M3695 5480 c3 -5 14 -10 23 -10 15 0 15 2 2 10 -20 13 -33 13 -25 0z"/>
<path d="M4727 4949 c7 -7 15 -10 18 -7 3 3 -2 9 -12 12 -14 6 -15 5 -6 -5z"/>
<path d="M4814 3657 c-3 -8 -4 -30 -2 -49 2 -25 8 -33 23 -33 17 0 20 7 20 45
0 35 -4 45 -18 48 -9 2 -20 -3 -23 -11z"/>
<path d="M1010 8236 c0 -2 7 -7 16 -10 8 -3 12 -2 9 4 -6 10 -25 14 -25 6z"/>
<path d="M1071 7884 c0 -11 3 -14 6 -6 3 7 2 16 -1 19 -3 4 -6 -2 -5 -13z"/>
<path d="M1061 7844 c0 -11 3 -14 6 -6 3 7 2 16 -1 19 -3 4 -6 -2 -5 -13z"/>
<path d="M1126 7277 c3 -10 9 -15 12 -12 3 3 0 11 -7 18 -10 9 -11 8 -5 -6z"/>
<path d="M1181 6834 c0 -11 3 -14 6 -6 3 7 2 16 -1 19 -3 4 -6 -2 -5 -13z"/>
<path d="M1295 6060 c3 -5 8 -10 11 -10 2 0 4 5 4 10 0 6 -5 10 -11 10 -5 0
-7 -4 -4 -10z"/>
<path d="M1315 5910 c3 -5 8 -10 11 -10 2 0 4 5 4 10 0 6 -5 10 -11 10 -5 0
-7 -4 -4 -10z"/>
<path d="M1371 5674 c0 -11 3 -14 6 -6 3 7 2 16 -1 19 -3 4 -6 -2 -5 -13z"/>
<path d="M1381 5564 c0 -11 3 -14 6 -6 3 7 2 16 -1 19 -3 4 -6 -2 -5 -13z"/>
<path d="M1555 4759 c-4 -6 -5 -12 -2 -15 2 -3 7 2 10 11 7 17 1 20 -8 4z"/>
</g>
</svg>
